<?xml version="1.0" encoding="UTF-8"?>
<!DOCTYPE svg PUBLIC "-//W3C//DTD SVG 1.1//EN" "http://www.w3.org/Graphics/SVG/1.1/DTD/svg11.dtd">
<!-- Creator: CorelDRAW 2017 -->
<svg xmlns="http://www.w3.org/2000/svg" xml:space="preserve" width="27.5001mm" height="12.5003mm" version="1.1" style="shape-rendering:geometricPrecision; text-rendering:geometricPrecision; image-rendering:optimizeQuality; fill-rule:evenodd; clip-rule:evenodd"
viewBox="0 0 5592 2542"
 xmlns:xlink="http://www.w3.org/1999/xlink">
 <defs>
  <style type="text/css">
   <![CDATA[
    .fil0 {fill:#FEFEFE;fill-rule:nonzero}
   ]]>
  </style>
 </defs>
 <g id="Слой_x0020_1">
  <metadata id="CorelCorpID_0Corel-Layer"/>
  <path class="fil0" d="M1909 2370c-193,138 -415,172 -638,172 -701,0 -1271,-570 -1271,-1271 0,-701 570,-1271 1271,-1271 701,0 1271,570 1271,1271 0,35 -2,63 -5,100 -1,16 -15,31 -35,31l-678 0c-52,5 -99,-3 -118,-51l-203 -496 -439 1168c-41,110 -135,108 -180,6l-275 -627 -194 0c-18,0 -37,-20 -38,-38l-1 -78c0,-18 20,-38 38,-38l326 0c53,0 96,20 116,64l164 397 460 -1190c46,-118 129,-122 184,7l313 722 287 0c-49,-501 -341,-1068 -994,-1062 -653,7 -998,563 -998,1083 0,520 498,1083 998,1083 330,0 445,-60 638,-173l0 189z"/>
  <path class="fil0" d="M2469 2145c0,17 -5,19 -21,19l-69 0c-15,0 -21,-4 -21,-19l0 -268 -283 0 0 268c0,17 -6,19 -22,19l-69 0c-14,0 -21,-4 -21,-19l0 -599c0,-15 7,-19 21,-19l69 0c16,0 22,2 22,19l0 236 283 0 0 -236c0,-15 6,-19 21,-19l69 0c16,0 21,2 21,19l0 599z"/>
  <path class="fil0" d="M3048 2143c0,14 -4,21 -19,21l-259 0c-108,0 -162,-57 -162,-163l0 -311c0,-101 59,-164 162,-164l254 0c16,0 18,6 18,21l0 57c0,15 -2,20 -18,20l-242 0c-42,0 -63,17 -63,60l0 96 275 0c17,0 18,7 18,22l0 50c0,14 -3,21 -18,21l-275 0 0 132c0,42 23,59 63,59l247 0c17,0 19,6 19,22l0 57z"/>
  <path class="fil0" d="M3541 1727c0,-68 -47,-102 -112,-102l-135 0 0 202 136 0c65,0 110,-31 110,-100zm-247 418c0,17 -5,19 -21,19l-68 0c-14,0 -21,-4 -21,-19l0 -568c0,-36 14,-52 51,-52l216 0c116,0 205,75 205,195 0,128 -89,201 -214,201l-148 0 0 224z"/>
  <path class="fil0" d="M3879 2145c0,17 -5,19 -21,19l-69 0c-14,0 -21,-4 -21,-19l0 -455c0,-104 56,-164 162,-164l250 0c16,0 19,6 19,21l0 56c0,15 -3,21 -19,21l-238 0c-42,0 -63,16 -63,59l0 461z"/>
  <path class="fil0" d="M5300 1971l-88 166c-14,22 -22,27 -48,27l-144 0c-12,0 -16,-13 -10,-22l193 -312 -172 -282c-9,-12 -3,-22 12,-22l132 0c25,0 36,1 48,25l77 146 76 -146c12,-23 23,-25 48,-25l132 0c15,0 21,10 12,22l-172 282 193 312c6,9 2,22 -10,22l-144 0c-26,0 -35,-5 -48,-27l-87 -166z"/>
  <path class="fil0" d="M4586 1624c42,0 63,17 63,60l0 320c0,42 -23,59 -63,59l-158 0c-40,0 -63,-17 -63,-59l0 -320c0,-43 21,-60 63,-60l158 0zm12 539c108,0 162,-57 162,-163l0 -311c0,-100 -58,-164 -162,-164l-182 0c-103,0 -162,62 -162,164l0 311c0,106 54,163 162,163l182 0z"/>
 </g>
</svg>
