<?xml version="1.0" standalone="no"?>
<!DOCTYPE svg PUBLIC "-//W3C//DTD SVG 20010904//EN"
 "http://www.w3.org/TR/2001/REC-SVG-20010904/DTD/svg10.dtd">
<svg version="1.0" xmlns="http://www.w3.org/2000/svg"
 width="700.000000pt" height="700.000000pt" viewBox="0 0 700.000000 700.000000"
 preserveAspectRatio="xMidYMid meet">
<metadata>
Created by potrace 1.11, written by Peter Selinger 2001-2013
</metadata>
<g transform="translate(0.000000,700.000000) scale(0.100000,-0.100000)"
fill="#000000" stroke="none">
<path d="M3279 6996 c-2 -2 -42 -6 -89 -10 -47 -3 -96 -8 -110 -11 -14 -2 -45
-7 -70 -9 -25 -3 -56 -8 -70 -10 -14 -3 -43 -7 -64 -11 -22 -3 -89 -17 -150
-31 -660 -150 -1266 -492 -1733 -975 -50 -52 -106 -112 -124 -134 -19 -22 -39
-44 -45 -50 -45 -40 -273 -361 -334 -470 -117 -207 -166 -305 -227 -455 -82
-200 -163 -469 -199 -665 -9 -49 -17 -97 -19 -105 -2 -9 -6 -43 -10 -75 -4
-33 -9 -69 -11 -80 -18 -97 -25 -515 -11 -691 75 -956 556 -1851 1322 -2460
349 -277 760 -489 1194 -615 152 -44 359 -88 496 -105 28 -3 61 -7 75 -9 211
-30 758 -24 965 9 17 3 53 8 80 12 95 12 281 53 403 88 226 67 435 162 613
278 l96 63 0 257 c0 142 -2 258 -4 258 -2 0 -58 -31 -124 -70 -257 -147 -498
-253 -694 -304 -128 -34 -291 -64 -385 -71 -14 -1 -63 -6 -110 -10 -169 -15
-507 -21 -610 -10 -387 40 -747 176 -1110 419 -379 252 -743 631 -996 1036
-221 354 -400 815 -440 1135 -3 22 -7 47 -10 55 -28 84 -24 561 6 765 5 33 11
78 15 100 3 22 7 47 10 55 2 8 6 33 10 55 7 52 49 217 81 325 102 336 280 689
489 964 91 120 110 143 220 257 325 336 718 569 1170 693 93 25 263 60 350 71
28 4 64 8 80 10 241 31 610 17 849 -31 11 -2 35 -7 51 -10 17 -2 80 -18 140
-35 911 -251 1587 -1037 1875 -2179 21 -85 41 -166 43 -180 12 -64 28 -148 33
-175 3 -16 14 -90 23 -163 l17 -132 -395 2 -396 3 -96 220 c-52 121 -137 317
-188 435 -96 223 -153 353 -176 405 -7 17 -102 235 -210 485 -224 518 -241
552 -304 620 -70 75 -142 97 -214 66 -84 -36 -130 -107 -223 -344 -42 -109
-82 -210 -89 -227 -7 -16 -234 -604 -504 -1305 -271 -701 -499 -1288 -506
-1305 -8 -16 -38 -94 -67 -172 -29 -79 -55 -143 -58 -143 -5 0 -150 341 -150
353 0 4 -12 32 -26 64 -37 82 -67 155 -252 608 -48 117 -108 182 -200 213 -60
20 -81 21 -557 22 -539 1 -534 1 -571 -56 -23 -34 -22 -259 0 -302 31 -61 38
-62 343 -62 l278 0 54 -122 c30 -68 87 -197 126 -288 200 -458 222 -507 281
-638 13 -29 24 -54 24 -57 0 -2 16 -39 35 -82 20 -43 40 -87 45 -98 5 -11 31
-72 59 -135 157 -362 174 -395 230 -448 52 -50 89 -65 151 -65 60 0 98 15 145
60 54 51 81 106 175 353 50 135 108 288 128 340 20 52 37 97 38 100 0 3 6 19
13 35 6 17 23 62 38 100 14 39 56 151 93 250 38 99 75 198 83 220 23 67 498
1328 511 1360 7 17 62 161 122 322 60 160 112 289 115 285 3 -4 25 -54 48
-112 168 -413 496 -1212 512 -1245 32 -70 73 -106 140 -126 48 -14 2061 -12
2092 2 54 24 62 74 61 359 0 179 -8 348 -19 410 -2 14 -7 45 -10 70 -3 25 -7
56 -10 70 -3 14 -8 41 -11 60 -8 55 -54 260 -69 310 -119 401 -251 689 -460
1005 -61 93 -214 299 -234 315 -4 3 -31 34 -61 69 -208 242 -523 505 -816 680
-127 77 -320 175 -429 220 -44 18 -93 39 -110 46 -145 65 -550 172 -765 200
-41 6 -130 17 -170 21 -53 6 -546 15 -551 10z"/>
<path d="M4871 2888 c-12 -4 -21 -15 -21 -24 0 -15 46 -96 125 -219 18 -27 42
-66 52 -85 11 -19 84 -139 162 -267 141 -232 142 -232 126 -260 -27 -47 -74
-125 -224 -366 -294 -474 -302 -487 -290 -508 9 -17 22 -19 117 -20 355 -2
380 0 413 37 14 16 142 250 239 437 14 26 27 47 30 47 3 0 14 -17 25 -37 11
-21 43 -81 71 -133 28 -52 74 -140 103 -195 59 -111 75 -133 110 -146 13 -5
125 -10 249 -10 203 0 228 2 239 17 16 21 25 5 -287 509 -132 214 -239 394
-236 401 2 6 110 185 240 398 130 213 236 394 236 402 0 26 -41 30 -264 29
l-219 -1 -30 -34 c-26 -32 -57 -88 -189 -342 -22 -43 -43 -78 -46 -78 -7 0
-29 39 -132 235 -75 141 -101 185 -124 204 -13 11 -65 15 -236 16 -120 0 -228
-2 -239 -7z"/>
</g>
</svg>
